<svg width="1340" height="620" viewBox="0 0 1340 620" fill="none" xmlns="http://www.w3.org/2000/svg">
<g filter="url(#filter0_d)">
<g clip-path="url(#clip0)">
<rect x="30" y="26" width="1280" height="560" rx="39" fill="#2B292E"/>
<path d="M337.787 161.387C338.493 162.447 339.553 163.153 340.613 163.153H357.573V170.573C357.573 186.827 366.053 201.667 379.833 208.733C387.253 212.62 391.493 220.747 390.08 229.227C388.667 237.707 379.833 245.48 371 245.833C366.053 245.833 361.46 244.067 357.927 240.887C356.513 239.473 355.1 237.707 354.04 235.94C349.447 227.813 340.613 222.513 331.427 222.513H328.6C326.833 222.513 325.067 224.28 325.067 226.047C325.067 239.12 330.72 251.487 340.26 260.32C348.74 267.74 359.693 271.98 371 271.98C376.3 271.98 381.247 270.92 386.547 269.507C403.153 263.853 414.813 249.013 416.58 231.347C418.7 212.267 409.16 194.247 392.2 185.413C387.253 182.587 384.073 176.933 384.073 170.573V163.153H401.033C402.093 163.153 403.507 162.447 404.213 161.387L422.233 131.707C422.94 130.647 422.94 129.587 422.587 128.527L409.867 97.7867C409.16 96.7267 408.1 95.6667 406.687 95.6667H335.313C333.9 95.6667 332.487 96.7267 332.133 97.7867L319.413 128.88C319.06 129.94 319.06 131 319.767 132.06L337.787 161.387ZM371 109.093C379.833 109.093 386.9 116.16 386.9 124.993C386.9 133.827 379.833 140.893 371 140.893C362.167 140.893 355.1 133.827 355.1 124.993C355.1 116.16 362.167 109.093 371 109.093Z" fill="#1ABCFE"/>
<g clip-path="url(#clip1)" filter="url(#filter1_d)">
<path d="M302.436 347.753C295.57 322.127 310.777 295.787 336.404 288.92C362.029 282.054 388.37 297.262 395.236 322.887C402.103 348.514 386.895 374.854 361.269 381.72C335.643 388.587 309.303 373.379 302.436 347.753Z" fill="#1ABCFE"/>
<path d="M234.502 465.418C227.636 439.793 242.843 413.452 268.469 406.586L314.869 394.153L327.302 440.553C334.169 466.179 318.961 492.519 293.335 499.386C267.709 506.252 241.369 491.045 234.502 465.418Z" fill="#0ACF83"/>
<path d="M265.138 208.553L290.004 301.353L336.404 288.92C362.03 282.054 377.237 255.714 370.371 230.088C363.504 204.462 337.164 189.254 311.538 196.121L265.138 208.553Z" fill="#FF7262"/>
<path d="M184.771 279.819C191.637 305.445 217.978 320.652 243.604 313.786L290.004 301.353L265.138 208.553L218.738 220.986C193.112 227.853 177.905 254.193 184.771 279.819Z" fill="#F24E1E"/>
<path d="M209.637 372.619C216.503 398.245 242.843 413.452 268.469 406.586L314.869 394.153L290.004 301.353L243.604 313.786C217.978 320.652 202.77 346.993 209.637 372.619Z" fill="#A259FF"/>
</g>
<g filter="url(#filter2_d)">
<path fill-rule="evenodd" clip-rule="evenodd" d="M337.405 257.446L353.343 234.779C348.59 227.312 340.168 222.513 331.427 222.513H328.6C326.833 222.513 325.067 224.28 325.067 226.047C325.067 237.757 329.603 248.901 337.405 257.446Z" fill="#1ABCFE"/>
</g>
<path d="M584.216 274V230.6H612.24V236.986H592.152V249.138H608.396V255.4H592.152V274H584.216ZM622.456 238.474C621.01 238.474 619.811 238.04 618.86 237.172C617.951 236.304 617.496 235.209 617.496 233.886C617.496 232.563 617.951 231.489 618.86 230.662C619.811 229.794 621.01 229.36 622.456 229.36C623.903 229.36 625.081 229.794 625.99 230.662C626.941 231.489 627.416 232.563 627.416 233.886C627.416 235.209 626.941 236.304 625.99 237.172C625.081 238.04 623.903 238.474 622.456 238.474ZM618.488 274V243.248H626.424V274H618.488ZM647.728 264.824C646.24 264.824 644.855 264.659 643.574 264.328L641.28 266.622C641.982 266.994 642.933 267.304 644.132 267.552C645.33 267.8 647.273 268.048 649.96 268.296C654.052 268.668 657.028 269.639 658.888 271.21C660.748 272.781 661.678 274.951 661.678 277.72C661.678 279.539 661.182 281.254 660.19 282.866C659.198 284.519 657.668 285.842 655.602 286.834C653.535 287.867 650.89 288.384 647.666 288.384C643.284 288.384 639.75 287.557 637.064 285.904C634.377 284.292 633.034 281.853 633.034 278.588C633.034 275.819 634.377 273.421 637.064 271.396C636.237 271.024 635.514 270.631 634.894 270.218C634.315 269.805 633.798 269.371 633.344 268.916V267.49L638.738 261.786C636.34 259.678 635.142 256.971 635.142 253.664C635.142 251.597 635.638 249.717 636.63 248.022C637.663 246.327 639.11 244.984 640.97 243.992C642.83 243 645.082 242.504 647.728 242.504C649.464 242.504 651.076 242.752 652.564 243.248H664.22V248.084L658.95 248.456C659.776 250.027 660.19 251.763 660.19 253.664C660.19 255.731 659.694 257.611 658.702 259.306C657.71 261.001 656.263 262.344 654.362 263.336C652.502 264.328 650.29 264.824 647.728 264.824ZM647.728 258.748C649.34 258.748 650.662 258.314 651.696 257.446C652.77 256.578 653.308 255.338 653.308 253.726C653.308 252.114 652.77 250.874 651.696 250.006C650.662 249.138 649.34 248.704 647.728 248.704C646.033 248.704 644.669 249.138 643.636 250.006C642.602 250.874 642.086 252.114 642.086 253.726C642.086 255.338 642.602 256.578 643.636 257.446C644.669 258.314 646.033 258.748 647.728 258.748ZM640.288 277.782C640.288 279.311 640.99 280.448 642.396 281.192C643.842 281.977 645.599 282.37 647.666 282.37C649.65 282.37 651.262 281.957 652.502 281.13C653.742 280.345 654.362 279.27 654.362 277.906C654.362 276.79 653.948 275.86 653.122 275.116C652.336 274.372 650.745 273.917 648.348 273.752C646.653 273.628 645.082 273.442 643.636 273.194C642.437 273.855 641.569 274.579 641.032 275.364C640.536 276.149 640.288 276.955 640.288 277.782ZM670.007 274V243.248H677.013L677.695 247.402C678.687 245.914 679.989 244.736 681.601 243.868C683.254 242.959 685.155 242.504 687.305 242.504C692.058 242.504 695.427 244.343 697.411 248.022C698.527 246.327 700.015 244.984 701.875 243.992C703.776 243 705.843 242.504 708.075 242.504C712.084 242.504 715.163 243.703 717.313 246.1C719.462 248.497 720.537 252.011 720.537 256.64V274H712.601V257.384C712.601 254.739 712.084 252.713 711.051 251.308C710.059 249.903 708.509 249.2 706.401 249.2C704.251 249.2 702.515 249.985 701.193 251.556C699.911 253.127 699.271 255.317 699.271 258.128V274H691.335V257.384C691.335 254.739 690.818 252.713 689.785 251.308C688.751 249.903 687.16 249.2 685.011 249.2C682.903 249.2 681.187 249.985 679.865 251.556C678.583 253.127 677.943 255.317 677.943 258.128V274H670.007ZM738.673 274.744C736.028 274.744 733.858 274.331 732.163 273.504C730.468 272.636 729.208 271.499 728.381 270.094C727.554 268.689 727.141 267.139 727.141 265.444C727.141 262.592 728.257 260.277 730.489 258.5C732.721 256.723 736.069 255.834 740.533 255.834H748.345V255.09C748.345 252.982 747.746 251.432 746.547 250.44C745.348 249.448 743.86 248.952 742.083 248.952C740.471 248.952 739.066 249.345 737.867 250.13C736.668 250.874 735.924 251.99 735.635 253.478H727.885C728.092 251.246 728.836 249.303 730.117 247.65C731.44 245.997 733.134 244.736 735.201 243.868C737.268 242.959 739.582 242.504 742.145 242.504C746.526 242.504 749.978 243.599 752.499 245.79C755.02 247.981 756.281 251.081 756.281 255.09V274H749.523L748.779 269.04C747.87 270.693 746.588 272.057 744.935 273.132C743.323 274.207 741.236 274.744 738.673 274.744ZM740.471 268.544C742.744 268.544 744.501 267.8 745.741 266.312C747.022 264.824 747.828 262.985 748.159 260.794H741.401C739.293 260.794 737.784 261.187 736.875 261.972C735.966 262.716 735.511 263.646 735.511 264.762C735.511 265.961 735.966 266.891 736.875 267.552C737.784 268.213 738.983 268.544 740.471 268.544ZM778.814 274V230.6H794.748C798.22 230.6 801.072 231.199 803.304 232.398C805.577 233.555 807.272 235.147 808.388 237.172C809.504 239.156 810.062 241.367 810.062 243.806C810.062 246.451 809.359 248.869 807.954 251.06C806.59 253.251 804.44 254.842 801.506 255.834L810.496 274H801.382L793.322 256.888H786.75V274H778.814ZM786.75 251.06H794.252C796.897 251.06 798.84 250.419 800.08 249.138C801.32 247.857 801.94 246.162 801.94 244.054C801.94 241.987 801.32 240.334 800.08 239.094C798.881 237.854 796.918 237.234 794.19 237.234H786.75V251.06ZM830.322 274.744C827.222 274.744 824.473 274.083 822.076 272.76C819.678 271.437 817.798 269.577 816.434 267.18C815.07 264.783 814.388 262.013 814.388 258.872C814.388 255.689 815.049 252.858 816.372 250.378C817.736 247.898 819.596 245.976 821.952 244.612C824.349 243.207 827.16 242.504 830.384 242.504C833.401 242.504 836.067 243.165 838.382 244.488C840.696 245.811 842.494 247.629 843.776 249.944C845.098 252.217 845.76 254.759 845.76 257.57C845.76 258.025 845.739 258.5 845.698 258.996C845.698 259.492 845.677 260.009 845.636 260.546H822.262C822.427 262.943 823.254 264.824 824.742 266.188C826.271 267.552 828.11 268.234 830.26 268.234C831.872 268.234 833.215 267.883 834.29 267.18C835.406 266.436 836.232 265.485 836.77 264.328H844.83C844.251 266.271 843.28 268.048 841.916 269.66C840.593 271.231 838.94 272.471 836.956 273.38C835.013 274.289 832.802 274.744 830.322 274.744ZM830.384 248.952C828.441 248.952 826.726 249.51 825.238 250.626C823.75 251.701 822.799 253.354 822.386 255.586H837.7C837.576 253.561 836.832 251.949 835.468 250.75C834.104 249.551 832.409 248.952 830.384 248.952ZM863.036 274.744C860.391 274.744 858.221 274.331 856.526 273.504C854.832 272.636 853.571 271.499 852.744 270.094C851.918 268.689 851.504 267.139 851.504 265.444C851.504 262.592 852.62 260.277 854.852 258.5C857.084 256.723 860.432 255.834 864.896 255.834H872.708V255.09C872.708 252.982 872.109 251.432 870.91 250.44C869.712 249.448 868.224 248.952 866.446 248.952C864.834 248.952 863.429 249.345 862.23 250.13C861.032 250.874 860.288 251.99 859.998 253.478H852.248C852.455 251.246 853.199 249.303 854.48 247.65C855.803 245.997 857.498 244.736 859.564 243.868C861.631 242.959 863.946 242.504 866.508 242.504C870.89 242.504 874.341 243.599 876.862 245.79C879.384 247.981 880.644 251.081 880.644 255.09V274H873.886L873.142 269.04C872.233 270.693 870.952 272.057 869.298 273.132C867.686 274.207 865.599 274.744 863.036 274.744ZM864.834 268.544C867.108 268.544 868.864 267.8 870.104 266.312C871.386 264.824 872.192 262.985 872.522 260.794H865.764C863.656 260.794 862.148 261.187 861.238 261.972C860.329 262.716 859.874 263.646 859.874 264.762C859.874 265.961 860.329 266.891 861.238 267.552C862.148 268.213 863.346 268.544 864.834 268.544ZM903.284 274.744C900.142 274.744 897.373 274.062 894.976 272.698C892.578 271.334 890.677 269.433 889.272 266.994C887.908 264.555 887.226 261.765 887.226 258.624C887.226 255.483 887.908 252.693 889.272 250.254C890.677 247.815 892.578 245.914 894.976 244.55C897.373 243.186 900.142 242.504 903.284 242.504C907.21 242.504 910.517 243.537 913.204 245.604C915.89 247.629 917.606 250.44 918.349 254.036H909.98C909.566 252.548 908.74 251.391 907.5 250.564C906.301 249.696 904.875 249.262 903.222 249.262C901.031 249.262 899.171 250.089 897.642 251.742C896.112 253.395 895.348 255.689 895.348 258.624C895.348 261.559 896.112 263.853 897.642 265.506C899.171 267.159 901.031 267.986 903.222 267.986C904.875 267.986 906.301 267.573 907.5 266.746C908.74 265.919 909.566 264.741 909.98 263.212H918.349C917.606 266.684 915.89 269.474 913.204 271.582C910.517 273.69 907.21 274.744 903.284 274.744ZM938.671 274C935.447 274 932.864 273.215 930.921 271.644C928.979 270.073 928.007 267.283 928.007 263.274V249.882H922.737V243.248H928.007L928.937 235.002H935.943V243.248H944.251V249.882H935.943V263.336C935.943 264.824 936.253 265.857 936.873 266.436C937.535 266.973 938.651 267.242 940.221 267.242H944.065V274H938.671ZM966.025 274V230.6H973.961V248.642H993.429V230.6H1001.36V274H993.429V255.09H973.961V274H966.025ZM1024.37 274.744C1021.39 274.744 1018.71 274.062 1016.31 272.698C1013.95 271.334 1012.07 269.453 1010.67 267.056C1009.3 264.617 1008.62 261.807 1008.62 258.624C1008.62 255.441 1009.32 252.651 1010.73 250.254C1012.14 247.815 1014.02 245.914 1016.37 244.55C1018.77 243.186 1021.46 242.504 1024.43 242.504C1027.37 242.504 1030.01 243.186 1032.37 244.55C1034.77 245.914 1036.65 247.815 1038.01 250.254C1039.42 252.651 1040.12 255.441 1040.12 258.624C1040.12 261.807 1039.42 264.617 1038.01 267.056C1036.65 269.453 1034.77 271.334 1032.37 272.698C1029.97 274.062 1027.3 274.744 1024.37 274.744ZM1024.37 267.862C1026.44 267.862 1028.23 267.097 1029.76 265.568C1031.29 263.997 1032.06 261.683 1032.06 258.624C1032.06 255.565 1031.29 253.271 1029.76 251.742C1028.23 250.171 1026.46 249.386 1024.43 249.386C1022.32 249.386 1020.51 250.171 1018.98 251.742C1017.49 253.271 1016.74 255.565 1016.74 258.624C1016.74 261.683 1017.49 263.997 1018.98 265.568C1020.51 267.097 1022.3 267.862 1024.37 267.862ZM1061.97 274.744C1058.99 274.744 1056.31 274.062 1053.91 272.698C1051.55 271.334 1049.67 269.453 1048.27 267.056C1046.9 264.617 1046.22 261.807 1046.22 258.624C1046.22 255.441 1046.92 252.651 1048.33 250.254C1049.73 247.815 1051.62 245.914 1053.97 244.55C1056.37 243.186 1059.06 242.504 1062.03 242.504C1064.97 242.504 1067.61 243.186 1069.97 244.55C1072.36 245.914 1074.25 247.815 1075.61 250.254C1077.01 252.651 1077.72 255.441 1077.72 258.624C1077.72 261.807 1077.01 264.617 1075.61 267.056C1074.25 269.453 1072.36 271.334 1069.97 272.698C1067.57 274.062 1064.9 274.744 1061.97 274.744ZM1061.97 267.862C1064.04 267.862 1065.83 267.097 1067.36 265.568C1068.89 263.997 1069.66 261.683 1069.66 258.624C1069.66 255.565 1068.89 253.271 1067.36 251.742C1065.83 250.171 1064.06 249.386 1062.03 249.386C1059.92 249.386 1058.1 250.171 1056.58 251.742C1055.09 253.271 1054.34 255.565 1054.34 258.624C1054.34 261.683 1055.09 263.997 1056.58 265.568C1058.1 267.097 1059.9 267.862 1061.97 267.862ZM1084.81 274V229.36H1092.75V255.71L1103.66 243.248H1113.09L1100.5 257.26L1115.13 274H1105.21L1092.75 258.562V274H1084.81ZM1131.25 274.744C1128.52 274.744 1126.12 274.31 1124.06 273.442C1121.99 272.533 1120.34 271.293 1119.1 269.722C1117.86 268.151 1117.11 266.333 1116.86 264.266H1124.86C1125.11 265.465 1125.77 266.498 1126.85 267.366C1127.96 268.193 1129.39 268.606 1131.12 268.606C1132.86 268.606 1134.12 268.255 1134.91 267.552C1135.73 266.849 1136.15 266.043 1136.15 265.134C1136.15 263.811 1135.57 262.923 1134.41 262.468C1133.25 261.972 1131.64 261.497 1129.57 261.042C1128.25 260.753 1126.91 260.401 1125.54 259.988C1124.18 259.575 1122.92 259.058 1121.76 258.438C1120.65 257.777 1119.74 256.95 1119.03 255.958C1118.33 254.925 1117.98 253.664 1117.98 252.176C1117.98 249.448 1119.05 247.154 1121.2 245.294C1123.39 243.434 1126.45 242.504 1130.38 242.504C1134.02 242.504 1136.91 243.351 1139.06 245.046C1141.25 246.741 1142.55 249.076 1142.97 252.052H1135.46C1135.01 249.779 1133.29 248.642 1130.32 248.642C1128.83 248.642 1127.67 248.931 1126.85 249.51C1126.06 250.089 1125.67 250.812 1125.67 251.68C1125.67 252.589 1126.27 253.313 1127.47 253.85C1128.66 254.387 1130.26 254.883 1132.24 255.338C1134.39 255.834 1136.35 256.392 1138.13 257.012C1139.95 257.591 1141.4 258.479 1142.47 259.678C1143.54 260.835 1144.08 262.509 1144.08 264.7C1144.12 266.601 1143.63 268.317 1142.59 269.846C1141.56 271.375 1140.07 272.574 1138.13 273.442C1136.19 274.31 1133.89 274.744 1131.25 274.744Z" fill="white"/>
<path d="M580.9 341L588.64 320H591.31L599.02 341H596.35L594.43 335.6H585.49L583.54 341H580.9ZM586.24 333.56H593.68L589.96 323.18L586.24 333.56ZM615.811 341C614.451 341 613.381 340.67 612.601 340.01C611.821 339.35 611.431 338.16 611.431 336.44V328.25H608.851V326.12H611.431L611.761 322.55H613.951V326.12H618.331V328.25H613.951V336.44C613.951 337.38 614.141 338.02 614.521 338.36C614.901 338.68 615.571 338.84 616.531 338.84H618.091V341H615.811ZM623.063 322.82C622.563 322.82 622.143 322.66 621.803 322.34C621.483 322 621.323 321.58 621.323 321.08C621.323 320.6 621.483 320.2 621.803 319.88C622.143 319.56 622.563 319.4 623.063 319.4C623.543 319.4 623.953 319.56 624.293 319.88C624.633 320.2 624.803 320.6 624.803 321.08C624.803 321.58 624.633 322 624.293 322.34C623.953 322.66 623.543 322.82 623.063 322.82ZM621.803 341V326.12H624.323V341H621.803ZM628.711 341V326.12H630.991L631.141 328.79C631.621 327.85 632.311 327.11 633.211 326.57C634.111 326.03 635.131 325.76 636.271 325.76C638.031 325.76 639.431 326.3 640.471 327.38C641.531 328.44 642.061 330.08 642.061 332.3V341H639.541V332.57C639.541 329.47 638.261 327.92 635.701 327.92C634.421 327.92 633.351 328.39 632.491 329.33C631.651 330.25 631.231 331.57 631.231 333.29V341H628.711ZM647.059 347.6L650.749 339.56H649.879L643.969 326.12H646.699L651.619 337.7L656.839 326.12H659.449L649.699 347.6H647.059ZM676.889 341.36C675.469 341.36 674.189 341.04 673.049 340.4C671.929 339.74 671.039 338.83 670.379 337.67C669.739 336.49 669.419 335.12 669.419 333.56C669.419 332 669.739 330.64 670.379 329.48C671.039 328.3 671.929 327.39 673.049 326.75C674.189 326.09 675.469 325.76 676.889 325.76C678.649 325.76 680.129 326.22 681.329 327.14C682.549 328.06 683.319 329.29 683.639 330.83H681.059C680.859 329.91 680.369 329.2 679.589 328.7C678.809 328.18 677.899 327.92 676.859 327.92C676.019 327.92 675.229 328.13 674.489 328.55C673.749 328.97 673.149 329.6 672.689 330.44C672.229 331.28 671.999 332.32 671.999 333.56C671.999 334.8 672.229 335.84 672.689 336.68C673.149 337.52 673.749 338.16 674.489 338.6C675.229 339.02 676.019 339.23 676.859 339.23C677.899 339.23 678.809 338.98 679.589 338.48C680.369 337.96 680.859 337.23 681.059 336.29H683.639C683.339 337.79 682.579 339.01 681.359 339.95C680.139 340.89 678.649 341.36 676.889 341.36ZM693.938 341.36C692.538 341.36 691.278 341.04 690.158 340.4C689.038 339.76 688.148 338.86 687.488 337.7C686.848 336.52 686.528 335.14 686.528 333.56C686.528 331.98 686.858 330.61 687.518 329.45C688.178 328.27 689.068 327.36 690.188 326.72C691.328 326.08 692.598 325.76 693.998 325.76C695.398 325.76 696.658 326.08 697.778 326.72C698.898 327.36 699.778 328.27 700.418 329.45C701.078 330.61 701.408 331.98 701.408 333.56C701.408 335.14 701.078 336.52 700.418 337.7C699.758 338.86 698.858 339.76 697.718 340.4C696.598 341.04 695.338 341.36 693.938 341.36ZM693.938 339.2C694.798 339.2 695.598 338.99 696.338 338.57C697.078 338.15 697.678 337.52 698.138 336.68C698.598 335.84 698.828 334.8 698.828 333.56C698.828 332.32 698.598 331.28 698.138 330.44C697.698 329.6 697.108 328.97 696.368 328.55C695.628 328.13 694.838 327.92 693.998 327.92C693.138 327.92 692.338 328.13 691.598 328.55C690.858 328.97 690.258 329.6 689.798 330.44C689.338 331.28 689.108 332.32 689.108 333.56C689.108 334.8 689.338 335.84 689.798 336.68C690.258 337.52 690.848 338.15 691.568 338.57C692.308 338.99 693.098 339.2 693.938 339.2ZM704.912 341V319.4H707.432V341H704.912ZM711.562 341V319.4H714.082V341H711.562ZM724.903 341.36C723.483 341.36 722.223 341.04 721.123 340.4C720.023 339.74 719.153 338.83 718.513 337.67C717.893 336.51 717.583 335.14 717.583 333.56C717.583 332 717.893 330.64 718.513 329.48C719.133 328.3 719.993 327.39 721.093 326.75C722.213 326.09 723.503 325.76 724.963 325.76C726.403 325.76 727.643 326.09 728.683 326.75C729.743 327.39 730.553 328.24 731.113 329.3C731.673 330.36 731.953 331.5 731.953 332.72C731.953 332.94 731.943 333.16 731.923 333.38C731.923 333.6 731.923 333.85 731.923 334.13H720.073C720.133 335.27 720.393 336.22 720.853 336.98C721.333 337.72 721.923 338.28 722.623 338.66C723.343 339.04 724.103 339.23 724.903 339.23C725.943 339.23 726.813 338.99 727.513 338.51C728.213 338.03 728.723 337.38 729.043 336.56H731.533C731.133 337.94 730.363 339.09 729.223 340.01C728.103 340.91 726.663 341.36 724.903 341.36ZM724.903 327.89C723.703 327.89 722.633 328.26 721.693 329C720.773 329.72 720.243 330.78 720.103 332.18H729.463C729.403 330.84 728.943 329.79 728.083 329.03C727.223 328.27 726.163 327.89 724.903 327.89ZM742.133 341.36C740.713 341.36 739.433 341.04 738.293 340.4C737.173 339.74 736.283 338.83 735.623 337.67C734.983 336.49 734.663 335.12 734.663 333.56C734.663 332 734.983 330.64 735.623 329.48C736.283 328.3 737.173 327.39 738.293 326.75C739.433 326.09 740.713 325.76 742.133 325.76C743.893 325.76 745.373 326.22 746.573 327.14C747.793 328.06 748.563 329.29 748.883 330.83H746.303C746.103 329.91 745.613 329.2 744.833 328.7C744.053 328.18 743.143 327.92 742.103 327.92C741.263 327.92 740.473 328.13 739.733 328.55C738.993 328.97 738.393 329.6 737.933 330.44C737.473 331.28 737.243 332.32 737.243 333.56C737.243 334.8 737.473 335.84 737.933 336.68C738.393 337.52 738.993 338.16 739.733 338.6C740.473 339.02 741.263 339.23 742.103 339.23C743.143 339.23 744.053 338.98 744.833 338.48C745.613 337.96 746.103 337.23 746.303 336.29H748.883C748.583 337.79 747.823 339.01 746.603 339.95C745.383 340.89 743.893 341.36 742.133 341.36ZM757.872 341C756.512 341 755.442 340.67 754.662 340.01C753.882 339.35 753.492 338.16 753.492 336.44V328.25H750.912V326.12H753.492L753.822 322.55H756.012V326.12H760.392V328.25H756.012V336.44C756.012 337.38 756.202 338.02 756.582 338.36C756.962 338.68 757.632 338.84 758.592 338.84H760.152V341H757.872ZM765.123 322.82C764.623 322.82 764.203 322.66 763.863 322.34C763.543 322 763.383 321.58 763.383 321.08C763.383 320.6 763.543 320.2 763.863 319.88C764.203 319.56 764.623 319.4 765.123 319.4C765.603 319.4 766.013 319.56 766.353 319.88C766.693 320.2 766.863 320.6 766.863 321.08C766.863 321.58 766.693 322 766.353 322.34C766.013 322.66 765.603 322.82 765.123 322.82ZM763.863 341V326.12H766.383V341H763.863ZM777.551 341.36C776.151 341.36 774.891 341.04 773.771 340.4C772.651 339.76 771.761 338.86 771.101 337.7C770.461 336.52 770.141 335.14 770.141 333.56C770.141 331.98 770.471 330.61 771.131 329.45C771.791 328.27 772.681 327.36 773.801 326.72C774.941 326.08 776.211 325.76 777.611 325.76C779.011 325.76 780.271 326.08 781.391 326.72C782.511 327.36 783.391 328.27 784.031 329.45C784.691 330.61 785.021 331.98 785.021 333.56C785.021 335.14 784.691 336.52 784.031 337.7C783.371 338.86 782.471 339.76 781.331 340.4C780.211 341.04 778.951 341.36 777.551 341.36ZM777.551 339.2C778.411 339.2 779.211 338.99 779.951 338.57C780.691 338.15 781.291 337.52 781.751 336.68C782.211 335.84 782.441 334.8 782.441 333.56C782.441 332.32 782.211 331.28 781.751 330.44C781.311 329.6 780.721 328.97 779.981 328.55C779.241 328.13 778.451 327.92 777.611 327.92C776.751 327.92 775.951 328.13 775.211 328.55C774.471 328.97 773.871 329.6 773.411 330.44C772.951 331.28 772.721 332.32 772.721 333.56C772.721 334.8 772.951 335.84 773.411 336.68C773.871 337.52 774.461 338.15 775.181 338.57C775.921 338.99 776.711 339.2 777.551 339.2ZM788.525 341V326.12H790.805L790.955 328.79C791.435 327.85 792.125 327.11 793.025 326.57C793.925 326.03 794.945 325.76 796.085 325.76C797.845 325.76 799.245 326.3 800.285 327.38C801.345 328.44 801.875 330.08 801.875 332.3V341H799.355V332.57C799.355 329.47 798.075 327.92 795.515 327.92C794.235 327.92 793.165 328.39 792.305 329.33C791.465 330.25 791.045 331.57 791.045 333.29V341H788.525ZM820.413 341.36C819.013 341.36 817.753 341.04 816.633 340.4C815.513 339.76 814.623 338.86 813.963 337.7C813.323 336.52 813.003 335.14 813.003 333.56C813.003 331.98 813.333 330.61 813.993 329.45C814.653 328.27 815.543 327.36 816.663 326.72C817.803 326.08 819.073 325.76 820.473 325.76C821.873 325.76 823.133 326.08 824.253 326.72C825.373 327.36 826.253 328.27 826.893 329.45C827.553 330.61 827.883 331.98 827.883 333.56C827.883 335.14 827.553 336.52 826.893 337.7C826.233 338.86 825.333 339.76 824.193 340.4C823.073 341.04 821.813 341.36 820.413 341.36ZM820.413 339.2C821.273 339.2 822.073 338.99 822.813 338.57C823.553 338.15 824.153 337.52 824.613 336.68C825.073 335.84 825.303 334.8 825.303 333.56C825.303 332.32 825.073 331.28 824.613 330.44C824.173 329.6 823.583 328.97 822.843 328.55C822.103 328.13 821.313 327.92 820.473 327.92C819.613 327.92 818.813 328.13 818.073 328.55C817.333 328.97 816.733 329.6 816.273 330.44C815.813 331.28 815.583 332.32 815.583 333.56C815.583 334.8 815.813 335.84 816.273 336.68C816.733 337.52 817.323 338.15 818.043 338.57C818.783 338.99 819.573 339.2 820.413 339.2ZM832.196 341V328.25H829.946V326.12H832.196V323.54C832.196 322.1 832.556 321.05 833.276 320.39C833.996 319.73 835.046 319.4 836.426 319.4H837.926V321.56H836.816C836.056 321.56 835.516 321.72 835.196 322.04C834.876 322.34 834.716 322.86 834.716 323.6V326.12H838.376V328.25H834.716V341H832.196ZM849.466 341V320H856.246C857.886 320 859.226 320.27 860.266 320.81C861.306 321.35 862.076 322.09 862.576 323.03C863.076 323.97 863.326 325.01 863.326 326.15C863.326 327.47 862.966 328.66 862.246 329.72C861.546 330.78 860.446 331.53 858.946 331.97L863.536 341H860.566L856.306 332.33H856.126H851.986V341H849.466ZM851.986 330.35H856.066C857.686 330.35 858.866 329.96 859.606 329.18C860.346 328.4 860.716 327.4 860.716 326.18C860.716 324.94 860.346 323.96 859.606 323.24C858.886 322.5 857.696 322.13 856.036 322.13H851.986V330.35ZM872.881 341.36C871.461 341.36 870.201 341.04 869.101 340.4C868.001 339.74 867.131 338.83 866.491 337.67C865.871 336.51 865.561 335.14 865.561 333.56C865.561 332 865.871 330.64 866.491 329.48C867.111 328.3 867.971 327.39 869.071 326.75C870.191 326.09 871.481 325.76 872.941 325.76C874.381 325.76 875.621 326.09 876.661 326.75C877.721 327.39 878.531 328.24 879.091 329.3C879.651 330.36 879.931 331.5 879.931 332.72C879.931 332.94 879.921 333.16 879.901 333.38C879.901 333.6 879.901 333.85 879.901 334.13H868.051C868.111 335.27 868.371 336.22 868.831 336.98C869.311 337.72 869.901 338.28 870.601 338.66C871.321 339.04 872.081 339.23 872.881 339.23C873.921 339.23 874.791 338.99 875.491 338.51C876.191 338.03 876.701 337.38 877.021 336.56H879.511C879.111 337.94 878.341 339.09 877.201 340.01C876.081 340.91 874.641 341.36 872.881 341.36ZM872.881 327.89C871.681 327.89 870.611 328.26 869.671 329C868.751 329.72 868.221 330.78 868.081 332.18H877.441C877.381 330.84 876.921 329.79 876.061 329.03C875.201 328.27 874.141 327.89 872.881 327.89ZM888.221 341.36C886.981 341.36 885.951 341.15 885.131 340.73C884.311 340.31 883.701 339.75 883.301 339.05C882.901 338.35 882.701 337.59 882.701 336.77C882.701 335.25 883.281 334.08 884.441 333.26C885.601 332.44 887.181 332.03 889.181 332.03H893.201V331.85C893.201 330.55 892.861 329.57 892.181 328.91C891.501 328.23 890.591 327.89 889.451 327.89C888.471 327.89 887.621 328.14 886.901 328.64C886.201 329.12 885.761 329.83 885.581 330.77H883.001C883.101 329.69 883.461 328.78 884.081 328.04C884.721 327.3 885.511 326.74 886.451 326.36C887.391 325.96 888.391 325.76 889.451 325.76C891.531 325.76 893.091 326.32 894.131 327.44C895.191 328.54 895.721 330.01 895.721 331.85V341H893.471L893.321 338.33C892.901 339.17 892.281 339.89 891.461 340.49C890.661 341.07 889.581 341.36 888.221 341.36ZM888.611 339.23C889.571 339.23 890.391 338.98 891.071 338.48C891.771 337.98 892.301 337.33 892.661 336.53C893.021 335.73 893.201 334.89 893.201 334.01V333.98H889.391C887.911 333.98 886.861 334.24 886.241 334.76C885.641 335.26 885.341 335.89 885.341 336.65C885.341 337.43 885.621 338.06 886.181 338.54C886.761 339 887.571 339.23 888.611 339.23ZM906.342 341.36C904.922 341.36 903.642 341.04 902.502 340.4C901.382 339.74 900.492 338.83 899.832 337.67C899.192 336.49 898.872 335.12 898.872 333.56C898.872 332 899.192 330.64 899.832 329.48C900.492 328.3 901.382 327.39 902.502 326.75C903.642 326.09 904.922 325.76 906.342 325.76C908.102 325.76 909.582 326.22 910.782 327.14C912.002 328.06 912.772 329.29 913.092 330.83H910.512C910.312 329.91 909.822 329.2 909.042 328.7C908.262 328.18 907.352 327.92 906.312 327.92C905.472 327.92 904.682 328.13 903.942 328.55C903.202 328.97 902.602 329.6 902.142 330.44C901.682 331.28 901.452 332.32 901.452 333.56C901.452 334.8 901.682 335.84 902.142 336.68C902.602 337.52 903.202 338.16 903.942 338.6C904.682 339.02 905.472 339.23 906.312 339.23C907.352 339.23 908.262 338.98 909.042 338.48C909.822 337.96 910.312 337.23 910.512 336.29H913.092C912.792 337.79 912.032 339.01 910.812 339.95C909.592 340.89 908.102 341.36 906.342 341.36ZM922.081 341C920.721 341 919.651 340.67 918.871 340.01C918.091 339.35 917.701 338.16 917.701 336.44V328.25H915.121V326.12H917.701L918.031 322.55H920.221V326.12H924.601V328.25H920.221V336.44C920.221 337.38 920.411 338.02 920.791 338.36C921.171 338.68 921.841 338.84 922.801 338.84H924.361V341H922.081ZM935.742 341V319.4H938.262V328.67C938.762 327.75 939.472 327.04 940.392 326.54C941.312 326.02 942.312 325.76 943.392 325.76C945.112 325.76 946.492 326.3 947.532 327.38C948.572 328.44 949.092 330.08 949.092 332.3V341H946.602V332.57C946.602 329.47 945.352 327.92 942.852 327.92C941.552 327.92 940.462 328.39 939.582 329.33C938.702 330.25 938.262 331.57 938.262 333.29V341H935.742ZM959.69 341.36C958.29 341.36 957.03 341.04 955.91 340.4C954.79 339.76 953.9 338.86 953.24 337.7C952.6 336.52 952.28 335.14 952.28 333.56C952.28 331.98 952.61 330.61 953.27 329.45C953.93 328.27 954.82 327.36 955.94 326.72C957.08 326.08 958.35 325.76 959.75 325.76C961.15 325.76 962.41 326.08 963.53 326.72C964.65 327.36 965.53 328.27 966.17 329.45C966.83 330.61 967.16 331.98 967.16 333.56C967.16 335.14 966.83 336.52 966.17 337.7C965.51 338.86 964.61 339.76 963.47 340.4C962.35 341.04 961.09 341.36 959.69 341.36ZM959.69 339.2C960.55 339.2 961.35 338.99 962.09 338.57C962.83 338.15 963.43 337.52 963.89 336.68C964.35 335.84 964.58 334.8 964.58 333.56C964.58 332.32 964.35 331.28 963.89 330.44C963.45 329.6 962.86 328.97 962.12 328.55C961.38 328.13 960.59 327.92 959.75 327.92C958.89 327.92 958.09 328.13 957.35 328.55C956.61 328.97 956.01 329.6 955.55 330.44C955.09 331.28 954.86 332.32 954.86 333.56C954.86 334.8 955.09 335.84 955.55 336.68C956.01 337.52 956.6 338.15 957.32 338.57C958.06 338.99 958.85 339.2 959.69 339.2ZM977.444 341.36C976.044 341.36 974.784 341.04 973.664 340.4C972.544 339.76 971.654 338.86 970.994 337.7C970.354 336.52 970.034 335.14 970.034 333.56C970.034 331.98 970.364 330.61 971.024 329.45C971.684 328.27 972.574 327.36 973.694 326.72C974.834 326.08 976.104 325.76 977.504 325.76C978.904 325.76 980.164 326.08 981.284 326.72C982.404 327.36 983.284 328.27 983.924 329.45C984.584 330.61 984.914 331.98 984.914 333.56C984.914 335.14 984.584 336.52 983.924 337.7C983.264 338.86 982.364 339.76 981.224 340.4C980.104 341.04 978.844 341.36 977.444 341.36ZM977.444 339.2C978.304 339.2 979.104 338.99 979.844 338.57C980.584 338.15 981.184 337.52 981.644 336.68C982.104 335.84 982.334 334.8 982.334 333.56C982.334 332.32 982.104 331.28 981.644 330.44C981.204 329.6 980.614 328.97 979.874 328.55C979.134 328.13 978.344 327.92 977.504 327.92C976.644 327.92 975.844 328.13 975.104 328.55C974.364 328.97 973.764 329.6 973.304 330.44C972.844 331.28 972.614 332.32 972.614 333.56C972.614 334.8 972.844 335.84 973.304 336.68C973.764 337.52 974.354 338.15 975.074 338.57C975.814 338.99 976.604 339.2 977.444 339.2ZM988.418 341V319.4H990.938V332.39L997.028 326.12H1000.12L993.518 332.84L1000.96 341H997.748L990.938 333.29V341H988.418ZM1008.36 341.36C1006.58 341.36 1005.1 340.91 1003.92 340.01C1002.74 339.11 1002.05 337.89 1001.85 336.35H1004.43C1004.59 337.13 1005 337.81 1005.66 338.39C1006.34 338.95 1007.25 339.23 1008.39 339.23C1009.45 339.23 1010.23 339.01 1010.73 338.57C1011.23 338.11 1011.48 337.57 1011.48 336.95C1011.48 336.05 1011.15 335.45 1010.49 335.15C1009.85 334.85 1008.94 334.58 1007.76 334.34C1006.96 334.18 1006.16 333.95 1005.36 333.65C1004.56 333.35 1003.89 332.93 1003.35 332.39C1002.81 331.83 1002.54 331.1 1002.54 330.2C1002.54 328.9 1003.02 327.84 1003.98 327.02C1004.96 326.18 1006.28 325.76 1007.94 325.76C1009.52 325.76 1010.81 326.16 1011.81 326.96C1012.83 327.74 1013.42 328.86 1013.58 330.32H1011.09C1010.99 329.56 1010.66 328.97 1010.1 328.55C1009.56 328.11 1008.83 327.89 1007.91 327.89C1007.01 327.89 1006.31 328.08 1005.81 328.46C1005.33 328.84 1005.09 329.34 1005.09 329.96C1005.09 330.56 1005.4 331.03 1006.02 331.37C1006.66 331.71 1007.52 332 1008.6 332.24C1009.52 332.44 1010.39 332.69 1011.21 332.99C1012.05 333.27 1012.73 333.7 1013.25 334.28C1013.79 334.84 1014.06 335.66 1014.06 336.74C1014.08 338.08 1013.57 339.19 1012.53 340.07C1011.51 340.93 1010.12 341.36 1008.36 341.36ZM1031.48 341C1030.12 341 1029.05 340.67 1028.27 340.01C1027.49 339.35 1027.1 338.16 1027.1 336.44V328.25H1024.52V326.12H1027.1L1027.43 322.55H1029.62V326.12H1034V328.25H1029.62V336.44C1029.62 337.38 1029.81 338.02 1030.19 338.36C1030.57 338.68 1031.24 338.84 1032.2 338.84H1033.76V341H1031.48ZM1043.57 341.36C1042.17 341.36 1040.91 341.04 1039.79 340.4C1038.67 339.76 1037.78 338.86 1037.12 337.7C1036.48 336.52 1036.16 335.14 1036.16 333.56C1036.16 331.98 1036.49 330.61 1037.15 329.45C1037.81 328.27 1038.7 327.36 1039.82 326.72C1040.96 326.08 1042.23 325.76 1043.63 325.76C1045.03 325.76 1046.29 326.08 1047.41 326.72C1048.53 327.36 1049.41 328.27 1050.05 329.45C1050.71 330.61 1051.04 331.98 1051.04 333.56C1051.04 335.14 1050.71 336.52 1050.05 337.7C1049.39 338.86 1048.49 339.76 1047.35 340.4C1046.23 341.04 1044.97 341.36 1043.57 341.36ZM1043.57 339.2C1044.43 339.2 1045.23 338.99 1045.97 338.57C1046.71 338.15 1047.31 337.52 1047.77 336.68C1048.23 335.84 1048.46 334.8 1048.46 333.56C1048.46 332.32 1048.23 331.28 1047.77 330.44C1047.33 329.6 1046.74 328.97 1046 328.55C1045.26 328.13 1044.47 327.92 1043.63 327.92C1042.77 327.92 1041.97 328.13 1041.23 328.55C1040.49 328.97 1039.89 329.6 1039.43 330.44C1038.97 331.28 1038.74 332.32 1038.74 333.56C1038.74 334.8 1038.97 335.84 1039.43 336.68C1039.89 337.52 1040.48 338.15 1041.2 338.57C1041.94 338.99 1042.73 339.2 1043.57 339.2ZM582.07 380V365.12H584.35L584.53 367.28C585.01 366.48 585.65 365.86 586.45 365.42C587.25 364.98 588.15 364.76 589.15 364.76C590.33 364.76 591.34 365 592.18 365.48C593.04 365.96 593.7 366.69 594.16 367.67C594.68 366.77 595.39 366.06 596.29 365.54C597.21 365.02 598.2 364.76 599.26 364.76C601.04 364.76 602.46 365.3 603.52 366.38C604.58 367.44 605.11 369.08 605.11 371.3V380H602.62V371.57C602.62 370.03 602.31 368.87 601.69 368.09C601.07 367.31 600.18 366.92 599.02 366.92C597.82 366.92 596.82 367.39 596.02 368.33C595.24 369.25 594.85 370.57 594.85 372.29V380H592.33V371.57C592.33 370.03 592.02 368.87 591.4 368.09C590.78 367.31 589.89 366.92 588.73 366.92C587.55 366.92 586.56 367.39 585.76 368.33C584.98 369.25 584.59 370.57 584.59 372.29V380H582.07ZM613.856 380.36C612.616 380.36 611.586 380.15 610.766 379.73C609.946 379.31 609.336 378.75 608.936 378.05C608.536 377.35 608.336 376.59 608.336 375.77C608.336 374.25 608.916 373.08 610.076 372.26C611.236 371.44 612.816 371.03 614.816 371.03H618.836V370.85C618.836 369.55 618.496 368.57 617.816 367.91C617.136 367.23 616.226 366.89 615.086 366.89C614.106 366.89 613.256 367.14 612.536 367.64C611.836 368.12 611.396 368.83 611.216 369.77H608.636C608.736 368.69 609.096 367.78 609.716 367.04C610.356 366.3 611.146 365.74 612.086 365.36C613.026 364.96 614.026 364.76 615.086 364.76C617.166 364.76 618.726 365.32 619.766 366.44C620.826 367.54 621.356 369.01 621.356 370.85V380H619.106L618.956 377.33C618.536 378.17 617.916 378.89 617.096 379.49C616.296 380.07 615.216 380.36 613.856 380.36ZM614.246 378.23C615.206 378.23 616.026 377.98 616.706 377.48C617.406 376.98 617.936 376.33 618.296 375.53C618.656 374.73 618.836 373.89 618.836 373.01V372.98H615.026C613.546 372.98 612.496 373.24 611.876 373.76C611.276 374.26 610.976 374.89 610.976 375.65C610.976 376.43 611.256 377.06 611.816 377.54C612.396 378 613.206 378.23 614.246 378.23ZM625.136 380V358.4H627.656V371.39L633.746 365.12H636.836L630.236 371.84L637.676 380H634.466L627.656 372.29V380H625.136ZM645.86 380.36C644.44 380.36 643.18 380.04 642.08 379.4C640.98 378.74 640.11 377.83 639.47 376.67C638.85 375.51 638.54 374.14 638.54 372.56C638.54 371 638.85 369.64 639.47 368.48C640.09 367.3 640.95 366.39 642.05 365.75C643.17 365.09 644.46 364.76 645.92 364.76C647.36 364.76 648.6 365.09 649.64 365.75C650.7 366.39 651.51 367.24 652.07 368.3C652.63 369.36 652.91 370.5 652.91 371.72C652.91 371.94 652.9 372.16 652.88 372.38C652.88 372.6 652.88 372.85 652.88 373.13H641.03C641.09 374.27 641.35 375.22 641.81 375.98C642.29 376.72 642.88 377.28 643.58 377.66C644.3 378.04 645.06 378.23 645.86 378.23C646.9 378.23 647.77 377.99 648.47 377.51C649.17 377.03 649.68 376.38 650 375.56H652.49C652.09 376.94 651.32 378.09 650.18 379.01C649.06 379.91 647.62 380.36 645.86 380.36ZM645.86 366.89C644.66 366.89 643.59 367.26 642.65 368C641.73 368.72 641.2 369.78 641.06 371.18H650.42C650.36 369.84 649.9 368.79 649.04 368.03C648.18 367.27 647.12 366.89 645.86 366.89ZM667.189 380L662.839 365.12H665.359L668.509 376.79L671.989 365.12H674.839L678.349 376.79L681.469 365.12H684.019L679.669 380H677.089L673.429 367.73L669.769 380H667.189ZM686.806 380V365.12H689.086L689.296 367.97C689.756 366.99 690.456 366.21 691.396 365.63C692.336 365.05 693.496 364.76 694.876 364.76V367.4H694.186C693.306 367.4 692.496 367.56 691.756 367.88C691.016 368.18 690.426 368.7 689.986 369.44C689.546 370.18 689.326 371.2 689.326 372.5V380H686.806ZM699.235 361.82C698.735 361.82 698.315 361.66 697.975 361.34C697.655 361 697.495 360.58 697.495 360.08C697.495 359.6 697.655 359.2 697.975 358.88C698.315 358.56 698.735 358.4 699.235 358.4C699.715 358.4 700.125 358.56 700.465 358.88C700.805 359.2 700.975 359.6 700.975 360.08C700.975 360.58 700.805 361 700.465 361.34C700.125 361.66 699.715 361.82 699.235 361.82ZM697.975 380V365.12H700.495V380H697.975ZM710.763 380C709.403 380 708.333 379.67 707.553 379.01C706.773 378.35 706.383 377.16 706.383 375.44V367.25H703.802V365.12H706.383L706.713 361.55H708.903V365.12H713.283V367.25H708.903V375.44C708.903 376.38 709.093 377.02 709.473 377.36C709.853 377.68 710.523 377.84 711.483 377.84H713.043V380H710.763ZM718.014 361.82C717.514 361.82 717.094 361.66 716.754 361.34C716.434 361 716.274 360.58 716.274 360.08C716.274 359.6 716.434 359.2 716.754 358.88C717.094 358.56 717.514 358.4 718.014 358.4C718.494 358.4 718.904 358.56 719.244 358.88C719.584 359.2 719.754 359.6 719.754 360.08C719.754 360.58 719.584 361 719.244 361.34C718.904 361.66 718.494 361.82 718.014 361.82ZM716.754 380V365.12H719.274V380H716.754ZM723.662 380V365.12H725.942L726.092 367.79C726.572 366.85 727.262 366.11 728.162 365.57C729.062 365.03 730.082 364.76 731.222 364.76C732.982 364.76 734.382 365.3 735.422 366.38C736.482 367.44 737.012 369.08 737.012 371.3V380H734.492V371.57C734.492 368.47 733.212 366.92 730.652 366.92C729.372 366.92 728.302 367.39 727.442 368.33C726.602 369.25 726.182 370.57 726.182 372.29V380H723.662ZM746.71 375.32C745.87 375.32 745.1 375.21 744.4 374.99L742.9 376.4C743.12 376.56 743.39 376.7 743.71 376.82C744.05 376.92 744.53 377.02 745.15 377.12C745.77 377.2 746.64 377.29 747.76 377.39C749.76 377.53 751.19 377.99 752.05 378.77C752.91 379.55 753.34 380.57 753.34 381.83C753.34 382.69 753.1 383.51 752.62 384.29C752.16 385.07 751.44 385.71 750.46 386.21C749.5 386.71 748.26 386.96 746.74 386.96C745.4 386.96 744.21 386.78 743.17 386.42C742.13 386.08 741.32 385.55 740.74 384.83C740.16 384.13 739.87 383.24 739.87 382.16C739.87 381.6 740.02 380.99 740.32 380.33C740.62 379.69 741.18 379.08 742 378.5C741.56 378.32 741.18 378.13 740.86 377.93C740.56 377.71 740.28 377.47 740.02 377.21V376.52L742.57 374C741.39 373 740.8 371.68 740.8 370.04C740.8 369.06 741.03 368.17 741.49 367.37C741.95 366.57 742.62 365.94 743.5 365.48C744.38 365 745.45 364.76 746.71 364.76C747.57 364.76 748.35 364.88 749.05 365.12H754.54V367.01L751.75 367.13C752.33 367.97 752.62 368.94 752.62 370.04C752.62 371.02 752.38 371.91 751.9 372.71C751.44 373.51 750.77 374.15 749.89 374.63C749.03 375.09 747.97 375.32 746.71 375.32ZM746.71 373.25C747.77 373.25 748.61 372.98 749.23 372.44C749.87 371.88 750.19 371.08 750.19 370.04C750.19 369.02 749.87 368.24 749.23 367.7C748.61 367.14 747.77 366.86 746.71 366.86C745.63 366.86 744.77 367.14 744.13 367.7C743.51 368.24 743.2 369.02 743.2 370.04C743.2 371.08 743.51 371.88 744.13 372.44C744.77 372.98 745.63 373.25 746.71 373.25ZM742.33 381.92C742.33 382.92 742.75 383.66 743.59 384.14C744.43 384.64 745.48 384.89 746.74 384.89C747.98 384.89 748.97 384.62 749.71 384.08C750.47 383.54 750.85 382.82 750.85 381.92C750.85 381.28 750.59 380.72 750.07 380.24C749.55 379.78 748.59 379.51 747.19 379.43C746.09 379.35 745.14 379.25 744.34 379.13C743.52 379.57 742.98 380.04 742.72 380.54C742.46 381.06 742.33 381.52 742.33 381.92ZM765.472 380V359H778.252V361.07H767.992V368.45H776.722V370.49H767.992V380H765.472ZM782.877 361.82C782.377 361.82 781.957 361.66 781.617 361.34C781.297 361 781.137 360.58 781.137 360.08C781.137 359.6 781.297 359.2 781.617 358.88C781.957 358.56 782.377 358.4 782.877 358.4C783.357 358.4 783.767 358.56 784.107 358.88C784.447 359.2 784.617 359.6 784.617 360.08C784.617 360.58 784.447 361 784.107 361.34C783.767 361.66 783.357 361.82 782.877 361.82ZM781.617 380V365.12H784.137V380H781.617ZM794.405 375.32C793.565 375.32 792.795 375.21 792.095 374.99L790.595 376.4C790.815 376.56 791.085 376.7 791.405 376.82C791.745 376.92 792.225 377.02 792.845 377.12C793.465 377.2 794.335 377.29 795.455 377.39C797.455 377.53 798.885 377.99 799.745 378.77C800.605 379.55 801.035 380.57 801.035 381.83C801.035 382.69 800.795 383.51 800.315 384.29C799.855 385.07 799.135 385.71 798.155 386.21C797.195 386.71 795.955 386.96 794.435 386.96C793.095 386.96 791.905 386.78 790.865 386.42C789.825 386.08 789.015 385.55 788.435 384.83C787.855 384.13 787.565 383.24 787.565 382.16C787.565 381.6 787.715 380.99 788.015 380.33C788.315 379.69 788.875 379.08 789.695 378.5C789.255 378.32 788.875 378.13 788.555 377.93C788.255 377.71 787.975 377.47 787.715 377.21V376.52L790.265 374C789.085 373 788.495 371.68 788.495 370.04C788.495 369.06 788.725 368.17 789.185 367.37C789.645 366.57 790.315 365.94 791.195 365.48C792.075 365 793.145 364.76 794.405 364.76C795.265 364.76 796.045 364.88 796.745 365.12H802.235V367.01L799.445 367.13C800.025 367.97 800.315 368.94 800.315 370.04C800.315 371.02 800.075 371.91 799.595 372.71C799.135 373.51 798.465 374.15 797.585 374.63C796.725 375.09 795.665 375.32 794.405 375.32ZM794.405 373.25C795.465 373.25 796.305 372.98 796.925 372.44C797.565 371.88 797.885 371.08 797.885 370.04C797.885 369.02 797.565 368.24 796.925 367.7C796.305 367.14 795.465 366.86 794.405 366.86C793.325 366.86 792.465 367.14 791.825 367.7C791.205 368.24 790.895 369.02 790.895 370.04C790.895 371.08 791.205 371.88 791.825 372.44C792.465 372.98 793.325 373.25 794.405 373.25ZM790.025 381.92C790.025 382.92 790.445 383.66 791.285 384.14C792.125 384.64 793.175 384.89 794.435 384.89C795.675 384.89 796.665 384.62 797.405 384.08C798.165 383.54 798.545 382.82 798.545 381.92C798.545 381.28 798.285 380.72 797.765 380.24C797.245 379.78 796.285 379.51 794.885 379.43C793.785 379.35 792.835 379.25 792.035 379.13C791.215 379.57 790.675 380.04 790.415 380.54C790.155 381.06 790.025 381.52 790.025 381.92ZM805.078 380V365.12H807.358L807.538 367.28C808.018 366.48 808.658 365.86 809.458 365.42C810.258 364.98 811.158 364.76 812.158 364.76C813.338 364.76 814.348 365 815.188 365.48C816.048 365.96 816.708 366.69 817.168 367.67C817.688 366.77 818.398 366.06 819.298 365.54C820.218 365.02 821.208 364.76 822.268 364.76C824.048 364.76 825.468 365.3 826.528 366.38C827.588 367.44 828.118 369.08 828.118 371.3V380H825.628V371.57C825.628 370.03 825.318 368.87 824.698 368.09C824.078 367.31 823.188 366.92 822.028 366.92C820.828 366.92 819.828 367.39 819.028 368.33C818.248 369.25 817.858 370.57 817.858 372.29V380H815.338V371.57C815.338 370.03 815.028 368.87 814.408 368.09C813.788 367.31 812.898 366.92 811.738 366.92C810.558 366.92 809.568 367.39 808.768 368.33C807.988 369.25 807.598 370.57 807.598 372.29V380H805.078ZM836.864 380.36C835.624 380.36 834.594 380.15 833.774 379.73C832.954 379.31 832.344 378.75 831.944 378.05C831.544 377.35 831.344 376.59 831.344 375.77C831.344 374.25 831.924 373.08 833.084 372.26C834.244 371.44 835.824 371.03 837.824 371.03H841.844V370.85C841.844 369.55 841.504 368.57 840.824 367.91C840.144 367.23 839.234 366.89 838.094 366.89C837.114 366.89 836.264 367.14 835.544 367.64C834.844 368.12 834.404 368.83 834.224 369.77H831.644C831.744 368.69 832.104 367.78 832.724 367.04C833.364 366.3 834.154 365.74 835.094 365.36C836.034 364.96 837.034 364.76 838.094 364.76C840.174 364.76 841.734 365.32 842.774 366.44C843.834 367.54 844.364 369.01 844.364 370.85V380H842.114L841.964 377.33C841.544 378.17 840.924 378.89 840.104 379.49C839.304 380.07 838.224 380.36 836.864 380.36ZM837.254 378.23C838.214 378.23 839.034 377.98 839.714 377.48C840.414 376.98 840.944 376.33 841.304 375.53C841.664 374.73 841.844 373.89 841.844 373.01V372.98H838.034C836.554 372.98 835.504 373.24 834.884 373.76C834.284 374.26 833.984 374.89 833.984 375.65C833.984 376.43 834.264 377.06 834.824 377.54C835.404 378 836.214 378.23 837.254 378.23ZM856.084 386.6V365.12H858.364L858.604 367.58C859.084 366.86 859.764 366.21 860.644 365.63C861.544 365.05 862.684 364.76 864.064 364.76C865.544 364.76 866.834 365.1 867.934 365.78C869.034 366.46 869.884 367.39 870.484 368.57C871.104 369.75 871.414 371.09 871.414 372.59C871.414 374.09 871.104 375.43 870.484 376.61C869.884 377.77 869.024 378.69 867.904 379.37C866.804 380.03 865.514 380.36 864.034 380.36C862.814 380.36 861.724 380.11 860.764 379.61C859.824 379.11 859.104 378.41 858.604 377.51V386.6H856.084ZM863.764 378.17C864.764 378.17 865.644 377.94 866.404 377.48C867.164 377 867.764 376.34 868.204 375.5C868.644 374.66 868.864 373.68 868.864 372.56C868.864 371.44 868.644 370.46 868.204 369.62C867.764 368.78 867.164 368.13 866.404 367.67C865.644 367.19 864.764 366.95 863.764 366.95C862.764 366.95 861.884 367.19 861.124 367.67C860.364 368.13 859.764 368.78 859.324 369.62C858.884 370.46 858.664 371.44 858.664 372.56C858.664 373.68 858.884 374.66 859.324 375.5C859.764 376.34 860.364 377 861.124 377.48C861.884 377.94 862.764 378.17 863.764 378.17ZM874.922 380V358.4H877.442V380H874.922ZM887.002 380.36C885.242 380.36 883.842 379.83 882.802 378.77C881.762 377.69 881.242 376.04 881.242 373.82V365.12H883.762V373.55C883.762 376.65 885.032 378.2 887.572 378.2C888.872 378.2 889.942 377.74 890.782 376.82C891.642 375.88 892.072 374.55 892.072 372.83V365.12H894.592V380H892.312L892.132 377.33C891.672 378.27 890.982 379.01 890.062 379.55C889.162 380.09 888.142 380.36 887.002 380.36ZM904.62 375.32C903.78 375.32 903.01 375.21 902.31 374.99L900.81 376.4C901.03 376.56 901.3 376.7 901.62 376.82C901.96 376.92 902.44 377.02 903.06 377.12C903.68 377.2 904.55 377.29 905.67 377.39C907.67 377.53 909.1 377.99 909.96 378.77C910.82 379.55 911.25 380.57 911.25 381.83C911.25 382.69 911.01 383.51 910.53 384.29C910.07 385.07 909.35 385.71 908.37 386.21C907.41 386.71 906.17 386.96 904.65 386.96C903.31 386.96 902.12 386.78 901.08 386.42C900.04 386.08 899.23 385.55 898.65 384.83C898.07 384.13 897.78 383.24 897.78 382.16C897.78 381.6 897.93 380.99 898.23 380.33C898.53 379.69 899.09 379.08 899.91 378.5C899.47 378.32 899.09 378.13 898.77 377.93C898.47 377.71 898.19 377.47 897.93 377.21V376.52L900.48 374C899.3 373 898.71 371.68 898.71 370.04C898.71 369.06 898.94 368.17 899.4 367.37C899.86 366.57 900.53 365.94 901.41 365.48C902.29 365 903.36 364.76 904.62 364.76C905.48 364.76 906.26 364.88 906.96 365.12H912.45V367.01L909.66 367.13C910.24 367.97 910.53 368.94 910.53 370.04C910.53 371.02 910.29 371.91 909.81 372.71C909.35 373.51 908.68 374.15 907.8 374.63C906.94 375.09 905.88 375.32 904.62 375.32ZM904.62 373.25C905.68 373.25 906.52 372.98 907.14 372.44C907.78 371.88 908.1 371.08 908.1 370.04C908.1 369.02 907.78 368.24 907.14 367.7C906.52 367.14 905.68 366.86 904.62 366.86C903.54 366.86 902.68 367.14 902.04 367.7C901.42 368.24 901.11 369.02 901.11 370.04C901.11 371.08 901.42 371.88 902.04 372.44C902.68 372.98 903.54 373.25 904.62 373.25ZM900.24 381.92C900.24 382.92 900.66 383.66 901.5 384.14C902.34 384.64 903.39 384.89 904.65 384.89C905.89 384.89 906.88 384.62 907.62 384.08C908.38 383.54 908.76 382.82 908.76 381.92C908.76 381.28 908.5 380.72 907.98 380.24C907.46 379.78 906.5 379.51 905.1 379.43C904 379.35 903.05 379.25 902.25 379.13C901.43 379.57 900.89 380.04 900.63 380.54C900.37 381.06 900.24 381.52 900.24 381.92ZM916.823 361.82C916.323 361.82 915.903 361.66 915.563 361.34C915.243 361 915.083 360.58 915.083 360.08C915.083 359.6 915.243 359.2 915.563 358.88C915.903 358.56 916.323 358.4 916.823 358.4C917.303 358.4 917.713 358.56 918.053 358.88C918.393 359.2 918.563 359.6 918.563 360.08C918.563 360.58 918.393 361 918.053 361.34C917.713 361.66 917.303 361.82 916.823 361.82ZM915.563 380V365.12H918.083V380H915.563ZM922.47 380V365.12H924.75L924.9 367.79C925.38 366.85 926.07 366.11 926.97 365.57C927.87 365.03 928.89 364.76 930.03 364.76C931.79 364.76 933.19 365.3 934.23 366.38C935.29 367.44 935.82 369.08 935.82 371.3V380H933.3V371.57C933.3 368.47 932.02 366.92 929.46 366.92C928.18 366.92 927.11 367.39 926.25 368.33C925.41 369.25 924.99 370.57 924.99 372.29V380H922.47ZM945.338 380.36C943.558 380.36 942.078 379.91 940.898 379.01C939.718 378.11 939.028 376.89 938.828 375.35H941.408C941.568 376.13 941.978 376.81 942.638 377.39C943.318 377.95 944.228 378.23 945.368 378.23C946.428 378.23 947.208 378.01 947.708 377.57C948.208 377.11 948.458 376.57 948.458 375.95C948.458 375.05 948.128 374.45 947.468 374.15C946.828 373.85 945.918 373.58 944.738 373.34C943.938 373.18 943.138 372.95 942.338 372.65C941.538 372.35 940.868 371.93 940.328 371.39C939.788 370.83 939.518 370.1 939.518 369.2C939.518 367.9 939.998 366.84 940.958 366.02C941.938 365.18 943.258 364.76 944.918 364.76C946.498 364.76 947.788 365.16 948.788 365.96C949.808 366.74 950.398 367.86 950.558 369.32H948.068C947.968 368.56 947.638 367.97 947.078 367.55C946.538 367.11 945.808 366.89 944.888 366.89C943.988 366.89 943.288 367.08 942.788 367.46C942.308 367.84 942.068 368.34 942.068 368.96C942.068 369.56 942.378 370.03 942.998 370.37C943.638 370.71 944.498 371 945.578 371.24C946.498 371.44 947.368 371.69 948.188 371.99C949.028 372.27 949.708 372.7 950.228 373.28C950.768 373.84 951.038 374.66 951.038 375.74C951.058 377.08 950.548 378.19 949.508 379.07C948.488 379.93 947.098 380.36 945.338 380.36ZM968.278 380.36C966.498 380.36 965.018 379.91 963.838 379.01C962.658 378.11 961.968 376.89 961.768 375.35H964.348C964.508 376.13 964.918 376.81 965.578 377.39C966.258 377.95 967.168 378.23 968.308 378.23C969.368 378.23 970.148 378.01 970.648 377.57C971.148 377.11 971.398 376.57 971.398 375.95C971.398 375.05 971.068 374.45 970.408 374.15C969.768 373.85 968.858 373.58 967.678 373.34C966.878 373.18 966.078 372.95 965.278 372.65C964.478 372.35 963.808 371.93 963.268 371.39C962.728 370.83 962.458 370.1 962.458 369.2C962.458 367.9 962.938 366.84 963.898 366.02C964.878 365.18 966.198 364.76 967.858 364.76C969.438 364.76 970.728 365.16 971.728 365.96C972.748 366.74 973.338 367.86 973.498 369.32H971.008C970.908 368.56 970.578 367.97 970.018 367.55C969.478 367.11 968.748 366.89 967.828 366.89C966.928 366.89 966.228 367.08 965.728 367.46C965.248 367.84 965.008 368.34 965.008 368.96C965.008 369.56 965.318 370.03 965.938 370.37C966.578 370.71 967.438 371 968.518 371.24C969.438 371.44 970.308 371.69 971.128 371.99C971.968 372.27 972.648 372.7 973.168 373.28C973.708 373.84 973.978 374.66 973.978 375.74C973.998 377.08 973.488 378.19 972.448 379.07C971.428 379.93 970.038 380.36 968.278 380.36ZM979.108 361.82C978.608 361.82 978.188 361.66 977.848 361.34C977.528 361 977.368 360.58 977.368 360.08C977.368 359.6 977.528 359.2 977.848 358.88C978.188 358.56 978.608 358.4 979.108 358.4C979.588 358.4 979.998 358.56 980.338 358.88C980.678 359.2 980.848 359.6 980.848 360.08C980.848 360.58 980.678 361 980.338 361.34C979.998 361.66 979.588 361.82 979.108 361.82ZM977.848 380V365.12H980.368V380H977.848ZM984.756 380V365.12H987.036L987.216 367.28C987.696 366.48 988.336 365.86 989.136 365.42C989.936 364.98 990.836 364.76 991.836 364.76C993.016 364.76 994.026 365 994.866 365.48C995.726 365.96 996.386 366.69 996.846 367.67C997.366 366.77 998.076 366.06 998.976 365.54C999.896 365.02 1000.89 364.76 1001.95 364.76C1003.73 364.76 1005.15 365.3 1006.21 366.38C1007.27 367.44 1007.8 369.08 1007.8 371.3V380H1005.31V371.57C1005.31 370.03 1005 368.87 1004.38 368.09C1003.76 367.31 1002.87 366.92 1001.71 366.92C1000.51 366.92 999.506 367.39 998.706 368.33C997.926 369.25 997.536 370.57 997.536 372.29V380H995.016V371.57C995.016 370.03 994.706 368.87 994.086 368.09C993.466 367.31 992.576 366.92 991.416 366.92C990.236 366.92 989.246 367.39 988.446 368.33C987.666 369.25 987.276 370.57 987.276 372.29V380H984.756ZM1011.59 386.6V365.12H1013.87L1014.11 367.58C1014.59 366.86 1015.27 366.21 1016.15 365.63C1017.05 365.05 1018.19 364.76 1019.57 364.76C1021.05 364.76 1022.34 365.1 1023.44 365.78C1024.54 366.46 1025.39 367.39 1025.99 368.57C1026.61 369.75 1026.92 371.09 1026.92 372.59C1026.92 374.09 1026.61 375.43 1025.99 376.61C1025.39 377.77 1024.53 378.69 1023.41 379.37C1022.31 380.03 1021.02 380.36 1019.54 380.36C1018.32 380.36 1017.23 380.11 1016.27 379.61C1015.33 379.11 1014.61 378.41 1014.11 377.51V386.6H1011.59ZM1019.27 378.17C1020.27 378.17 1021.15 377.94 1021.91 377.48C1022.67 377 1023.27 376.34 1023.71 375.5C1024.15 374.66 1024.37 373.68 1024.37 372.56C1024.37 371.44 1024.15 370.46 1023.71 369.62C1023.27 368.78 1022.67 368.13 1021.91 367.67C1021.15 367.19 1020.27 366.95 1019.27 366.95C1018.27 366.95 1017.39 367.19 1016.63 367.67C1015.87 368.13 1015.27 368.78 1014.83 369.62C1014.39 370.46 1014.17 371.44 1014.17 372.56C1014.17 373.68 1014.39 374.66 1014.83 375.5C1015.27 376.34 1015.87 377 1016.63 377.48C1017.39 377.94 1018.27 378.17 1019.27 378.17ZM1030.43 380V358.4H1032.95V380H1030.43ZM1043.77 380.36C1042.35 380.36 1041.09 380.04 1039.99 379.4C1038.89 378.74 1038.02 377.83 1037.38 376.67C1036.76 375.51 1036.45 374.14 1036.45 372.56C1036.45 371 1036.76 369.64 1037.38 368.48C1038 367.3 1038.86 366.39 1039.96 365.75C1041.08 365.09 1042.37 364.76 1043.83 364.76C1045.27 364.76 1046.51 365.09 1047.55 365.75C1048.61 366.39 1049.42 367.24 1049.98 368.3C1050.54 369.36 1050.82 370.5 1050.82 371.72C1050.82 371.94 1050.81 372.16 1050.79 372.38C1050.79 372.6 1050.79 372.85 1050.79 373.13H1038.94C1039 374.27 1039.26 375.22 1039.72 375.98C1040.2 376.72 1040.79 377.28 1041.49 377.66C1042.21 378.04 1042.97 378.23 1043.77 378.23C1044.81 378.23 1045.68 377.99 1046.38 377.51C1047.08 377.03 1047.59 376.38 1047.91 375.56H1050.4C1050 376.94 1049.23 378.09 1048.09 379.01C1046.97 379.91 1045.53 380.36 1043.77 380.36ZM1043.77 366.89C1042.57 366.89 1041.5 367.26 1040.56 368C1039.64 368.72 1039.11 369.78 1038.97 371.18H1048.33C1048.27 369.84 1047.81 368.79 1046.95 368.03C1046.09 367.27 1045.03 366.89 1043.77 366.89ZM1054.16 380V365.12H1056.44L1056.65 367.97C1057.11 366.99 1057.81 366.21 1058.75 365.63C1059.69 365.05 1060.85 364.76 1062.23 364.76V367.4H1061.54C1060.66 367.4 1059.85 367.56 1059.11 367.88C1058.37 368.18 1057.78 368.7 1057.34 369.44C1056.9 370.18 1056.68 371.2 1056.68 372.5V380H1054.16Z" fill="white"/>
<g filter="url(#filter3_d)">
<rect x="364" y="21" width="15" height="108" rx="7.5" fill="#A259FF"/>
</g>
</g>
</g>
<defs>
<filter id="filter0_d" x="0" y="0" width="1340" height="620" filterUnits="userSpaceOnUse" color-interpolation-filters="sRGB">
<feFlood flood-opacity="0" result="BackgroundImageFix"/>
<feColorMatrix in="SourceAlpha" type="matrix" values="0 0 0 0 0 0 0 0 0 0 0 0 0 0 0 0 0 0 127 0" result="hardAlpha"/>
<feOffset dy="4"/>
<feGaussianBlur stdDeviation="15"/>
<feComposite in2="hardAlpha" operator="out"/>
<feColorMatrix type="matrix" values="0 0 0 0 0 0 0 0 0 0 0 0 0 0 0 0 0 0 0.16 0"/>
<feBlend mode="normal" in2="BackgroundImageFix" result="effect1_dropShadow"/>
<feBlend mode="normal" in="SourceGraphic" in2="effect1_dropShadow" result="shape"/>
</filter>
<filter id="filter1_d" x="167" y="182" width="270.873" height="339.506" filterUnits="userSpaceOnUse" color-interpolation-filters="sRGB">
<feFlood flood-opacity="0" result="BackgroundImageFix"/>
<feColorMatrix in="SourceAlpha" type="matrix" values="0 0 0 0 0 0 0 0 0 0 0 0 0 0 0 0 0 0 127 0" result="hardAlpha"/>
<feOffset dy="4"/>
<feGaussianBlur stdDeviation="2"/>
<feColorMatrix type="matrix" values="0 0 0 0 0 0 0 0 0 0 0 0 0 0 0 0 0 0 0.25 0"/>
<feBlend mode="normal" in2="BackgroundImageFix" result="effect1_dropShadow"/>
<feBlend mode="normal" in="SourceGraphic" in2="effect1_dropShadow" result="shape"/>
</filter>
<filter id="filter2_d" x="321.067" y="222.513" width="36.2762" height="42.9323" filterUnits="userSpaceOnUse" color-interpolation-filters="sRGB">
<feFlood flood-opacity="0" result="BackgroundImageFix"/>
<feColorMatrix in="SourceAlpha" type="matrix" values="0 0 0 0 0 0 0 0 0 0 0 0 0 0 0 0 0 0 127 0" result="hardAlpha"/>
<feOffset dy="4"/>
<feGaussianBlur stdDeviation="2"/>
<feComposite in2="hardAlpha" operator="out"/>
<feColorMatrix type="matrix" values="0 0 0 0 0 0 0 0 0 0 0 0 0 0 0 0 0 0 0.25 0"/>
<feBlend mode="normal" in2="BackgroundImageFix" result="effect1_dropShadow"/>
<feBlend mode="normal" in="SourceGraphic" in2="effect1_dropShadow" result="shape"/>
</filter>
<filter id="filter3_d" x="360" y="21" width="23" height="116" filterUnits="userSpaceOnUse" color-interpolation-filters="sRGB">
<feFlood flood-opacity="0" result="BackgroundImageFix"/>
<feColorMatrix in="SourceAlpha" type="matrix" values="0 0 0 0 0 0 0 0 0 0 0 0 0 0 0 0 0 0 127 0" result="hardAlpha"/>
<feOffset dy="4"/>
<feGaussianBlur stdDeviation="2"/>
<feComposite in2="hardAlpha" operator="out"/>
<feColorMatrix type="matrix" values="0 0 0 0 0 0 0 0 0 0 0 0 0 0 0 0 0 0 0.25 0"/>
<feBlend mode="normal" in2="BackgroundImageFix" result="effect1_dropShadow"/>
<feBlend mode="normal" in="SourceGraphic" in2="effect1_dropShadow" result="shape"/>
</filter>
<clipPath id="clip0">
<rect x="30" y="26" width="1280" height="560" rx="39" fill="white"/>
</clipPath>
<clipPath id="clip1">
<rect width="194.123" height="291.185" fill="white" transform="translate(171 232.243) rotate(-15)"/>
</clipPath>
</defs>
</svg>
